<svg width="80" height="19" viewBox="0 0 80 19" fill="none" xmlns="http://www.w3.org/2000/svg">
<path d="M34.0965 9.589C34.0965 9.589 35.7046 9.03856 35.7046 7.18312C35.7046 5.01845 34.1831 3.96704 32.0679 3.96704H26.582V15.6748H32.5627C34.3996 15.6748 36.2179 14.376 36.2179 12.4093C36.2241 10.09 34.0965 9.60756 34.0965 9.589ZM29.4703 6.41003H31.6164C32.2844 6.41003 32.7297 6.86152 32.7297 7.5171C32.7297 8.03662 32.3153 8.58707 31.567 8.58707H29.4703V6.41003ZM31.6103 13.238H29.4641V10.9373H31.5608C32.606 10.9373 33.1008 11.4011 33.1008 12.0753C33.1008 12.9288 32.4885 13.238 31.6103 13.238Z" fill="#ED1C24"/>
<path d="M42.5578 3.67603C39.1624 3.67603 37.1709 6.39114 37.1709 9.81751C37.1709 13.2624 39.1624 15.959 42.5578 15.959C45.9718 15.959 47.9448 13.2624 47.9448 9.81751C47.9448 6.39114 45.9718 3.67603 42.5578 3.67603ZM42.5578 13.1511C40.8941 13.1511 40.0716 11.6606 40.0716 9.81132C40.0716 7.98063 40.8941 6.4901 42.5578 6.4901C44.2215 6.4901 45.0627 7.98063 45.0627 9.81132C45.0627 11.6668 44.2215 13.1511 42.5578 13.1511Z" fill="#ED1C24"/>
<path d="M54.191 8.56819L53.7766 8.4816C52.7808 8.27132 51.9954 8.01774 51.9954 7.30649C51.9954 6.52721 52.7499 6.21797 53.4179 6.21797C54.3951 6.21797 55.2548 6.70038 55.8176 7.30649L57.6359 5.50672C56.8133 4.57282 55.4589 3.67603 53.3684 3.67603C50.9007 3.67603 49.0267 5.06142 49.0267 7.36215C49.0267 9.45261 50.542 10.504 52.3912 10.8875L52.8056 10.9741C54.3394 11.2957 54.896 11.5307 54.896 12.2729C54.896 12.9656 54.259 13.4294 53.3189 13.4294C52.1685 13.4294 51.1419 12.9285 50.3502 11.9265L48.4824 13.7572C49.5153 14.9818 50.8141 15.9528 53.3498 15.9528C55.5454 15.9528 57.8771 14.7097 57.8771 12.1306C57.8771 9.43405 55.8609 8.92072 54.191 8.56819Z" fill="#ED1C24"/>
<path d="M64.4016 13.1511C63.1152 13.1511 61.7607 12.0811 61.7607 9.74329C61.7607 7.65902 63.01 6.4901 64.315 6.4901C65.3479 6.4901 65.9601 6.97251 66.4426 7.80746L68.8113 6.23652C67.63 4.45531 66.2385 3.69458 64.3026 3.69458C60.7711 3.69458 58.8477 6.44681 58.8477 9.74948C58.8477 13.2253 60.9752 15.959 64.2655 15.959C66.5786 15.959 67.6919 15.1488 68.8979 13.4171L66.5106 11.809C66.0282 12.6007 65.5148 13.1511 64.4016 13.1511Z" fill="#ED1C24"/>
<path d="M76.6665 3.96704V8.27783H73.1165V3.96704H70.0488V15.6748H73.1165V11.061H76.6665V15.6748H79.7527V3.96704H76.6665Z" fill="#ED1C24"/>
<path d="M12.3455 4.08415C12.2775 4.04704 12.2342 4.0223 12.1661 3.98519C12.1414 3.97282 12.1105 3.96045 12.0796 3.96045C11.9868 3.96045 11.9126 4.03467 11.9126 4.12744V7.08376C11.9126 7.12087 11.9126 7.1889 11.7394 7.1889H5.99374C5.82057 7.1889 5.82057 7.12706 5.82057 7.08376V4.12744C5.82057 4.03467 5.74635 3.96045 5.65358 3.96045C5.62266 3.96045 5.59792 3.96663 5.56699 3.98519C5.49278 4.02848 5.46185 4.04085 5.38763 4.09033C3.34666 5.34584 2.15918 7.46103 2.15918 9.82362C2.15918 12.1862 3.38995 14.3509 5.38763 15.5631C5.45567 15.6064 5.49278 15.6249 5.56699 15.6744C5.59173 15.6868 5.62266 15.693 5.65358 15.693C5.74635 15.693 5.82057 15.6188 5.82057 15.526V12.5635C5.82057 12.5264 5.82057 12.4583 5.99374 12.4583H11.7394C11.9126 12.4583 11.9126 12.5202 11.9126 12.5635V15.526C11.9126 15.6188 11.993 15.693 12.0796 15.693C12.1105 15.693 12.1414 15.6868 12.1661 15.6744C12.2466 15.6249 12.2651 15.6126 12.3455 15.5631C14.3803 14.3138 15.574 12.1924 15.574 9.82362C15.574 7.45485 14.3679 5.33347 12.3455 4.08415ZM4.85574 13.8128L4.86193 13.8561L4.831 13.8252C3.79196 12.749 3.22296 11.3265 3.22296 9.82362C3.22296 8.32072 3.79815 6.89822 4.831 5.82207L4.86193 5.79114L4.85574 5.83444C4.78771 6.26119 4.7506 6.71886 4.7506 7.19509V12.4521C4.7506 12.9284 4.78771 13.3861 4.85574 13.8128ZM11.9126 11.1162C11.9126 11.2523 11.8012 11.3636 11.6714 11.3636H6.06177C5.92571 11.3636 5.81438 11.2523 5.81438 11.1162V8.52482C5.81438 8.38875 5.92571 8.27742 6.06177 8.27742H11.6714C11.8074 8.27742 11.9126 8.38875 11.9126 8.52482V11.1162ZM12.896 13.819L12.865 13.8499L12.8712 13.8066C12.9392 13.3799 12.9702 12.9284 12.9702 12.446V7.1889C12.9702 6.71268 12.9392 6.255 12.8712 5.82825L12.865 5.78496L12.896 5.81588C13.935 6.89203 14.504 8.31453 14.504 9.81743C14.5102 11.3265 13.935 12.7428 12.896 13.819Z" fill="#475765"/>
<path d="M8.86279 0.961182C3.97063 0.961182 0 4.92562 0 9.82397C0 14.7161 3.96444 18.6868 8.86279 18.6868C13.7549 18.6868 17.7256 14.7223 17.7256 9.82397C17.7256 4.93181 13.7611 0.961182 8.86279 0.961182ZM8.86279 17.7157C4.51489 17.7157 0.971011 14.1719 0.971011 9.82397C0.971011 5.46988 4.51489 1.93219 8.86279 1.93219C13.2169 1.93219 16.7546 5.47607 16.7546 9.82397C16.7607 14.1781 13.2169 17.7157 8.86279 17.7157Z" fill="#475765"/>
</svg>
