<svg width="92" height="15" viewBox="0 0 92 15" fill="none" xmlns="http://www.w3.org/2000/svg">
<path d="M41.7276 6.22569V8.78739L45.6347 8.81814C45.3521 9.42763 44.85 10.0994 44.2071 10.4269C43.1395 11.0679 41.4611 10.9901 40.4564 10.2242C39.4051 9.44319 38.8404 8.3187 38.9815 7.02228C39.0601 5.77256 40.0644 4.53876 41.2571 4.14824C42.5283 3.67955 43.9878 4.00782 44.9293 4.9604H48.4604C48.1306 3.53913 46.7339 2.2894 45.4627 1.61766C44.1446 0.930369 42.4188 0.711769 40.8803 1.0556C38.5114 1.53986 36.3769 3.8674 36.0002 6.22569H29.3624V8.78739L33.2694 8.81814C32.9869 9.38021 32.5949 9.9745 32.0142 10.318C30.9157 11.0523 29.1427 11.0368 28.0911 10.2242C27.0396 9.44319 26.4749 8.3187 26.6156 7.02228C26.6937 5.77256 27.6984 4.53876 28.8911 4.14824C30.1623 3.67955 31.6219 4.00782 32.5633 4.9604H36.094C35.529 2.97669 33.4258 1.47687 31.527 1.03967C28.7184 0.446113 26.0189 1.57061 24.4975 3.9767C23.2263 5.8826 23.2103 8.92818 24.5131 10.8185C26.0509 13.2083 28.7188 14.3636 31.5277 13.7704C33.5989 13.3639 35.6391 11.5362 36.2668 9.52137C36.8944 11.4743 38.8561 13.3324 40.8803 13.7393C43.6111 14.3795 46.263 13.3476 47.8633 11.0679C48.8523 9.70885 49.0872 8.00636 48.9309 6.22532H41.7276V6.22569Z" fill="#434142"/>
<path d="M12.6642 11.349C13.7944 9.92811 14.1082 8.16264 13.9355 6.22598H6.71689V8.78768L10.64 8.81844C10.4044 9.27157 10.1218 9.72507 9.69858 10.0997C8.72515 10.9114 7.09361 11.1152 5.96384 10.5209C4.75554 9.92737 3.90756 8.69357 3.95484 7.33455C3.97047 5.99182 4.84897 4.69541 6.10455 4.21115C7.3754 3.66428 8.94441 3.97662 9.91783 4.9455H13.4486C13.0093 3.19596 11.1727 1.82137 9.57238 1.24337C8.77206 0.961786 7.90882 0.868047 6.98417 0.884349C4.88098 1.02514 2.98216 2.18076 1.82113 4.03961C0.942635 5.44532 0.69137 7.3816 1.11498 9.08446C1.66442 11.3649 3.93995 13.4891 6.27802 13.8177C8.8037 14.239 11.0952 13.3331 12.6642 11.349Z" fill="#434142"/>
<path d="M91.1742 1.25879H88.0198V5.92869C87.9417 7.45926 88.35 9.27143 87.0155 10.2866C86.3258 10.7861 85.3051 11.0047 84.4895 10.6301C83.5313 10.3018 82.9193 9.30218 82.8572 8.33367L82.8408 1.25879H79.6719L79.6868 7.3659C79.7028 8.30254 79.7969 9.20844 79.9846 10.0828C80.4089 11.9728 82.3699 13.5197 84.2062 13.8783C84.7553 14.0191 85.3992 14.0191 85.9948 13.9884C86.8138 13.9158 87.6066 13.6653 88.3176 13.2548C90.3419 12.1614 91.1899 10.0365 91.2371 7.85052L91.1742 1.25879Z" fill="#434142"/>
<path d="M49.3838 13.7077H57.1842V10.6313L52.6722 10.6154V8.7721H56.7907V6.16371L52.6722 6.13259V4.25855H57.1842V1.25928H49.3838V13.7077Z" fill="#434142"/>
<path d="M11.8945 13.7068H15.7551L16.6496 11.7857H20.7923C21.1061 12.3952 21.4046 13.051 21.6868 13.692H25.5313L18.7215 1.02466L11.8945 13.7068ZM19.8978 9.73978H17.591L18.7993 7.24106L19.8978 9.73978Z" fill="#434142"/>
<path d="M68.9056 11.4115V11.3956L68.8896 1.25845H65.5476L65.5316 7.17808L57.749 1.36812V13.7068H61.0121L61.0285 8.06804L61.0594 8.09991L68.5445 13.7068L71.5422 13.692L72.4211 11.7857H76.5958L77.4747 13.7068H81.3032V13.6761L74.4926 1.02466L68.9056 11.4115ZM75.6845 9.72459L73.3617 9.73941L74.586 7.24069L75.6845 9.72459Z" fill="#434142"/>
</svg>
