<svg width="63" height="20" viewBox="0 0 63 20" fill="none" xmlns="http://www.w3.org/2000/svg">
<path d="M22.2129 13.0627H33.7071V12.0424H28.9179V10.1891H33.7071V9.12022H28.9179V7.35027H33.7071V6.22583H22.2129V13.0627Z" fill="#B30838"/>
<path d="M37.0596 13.0627H43.7298V10.1891H48.5399V9.12022H43.7298V7.35027H48.5399V6.22583H37.0596V13.0627Z" fill="#B30838"/>
<path d="M62.3525 7.35027V6.22583H50.8652V13.0627H57.5424V10.1891H62.3525V9.12022H57.5424V7.35027H62.3525Z" fill="#B30838"/>
<path d="M13.6617 18.8655C14.8208 18.4283 15.8966 17.7966 16.8128 16.9637C18.8465 15.1313 20.0265 12.466 20.0265 9.73123C20.0265 4.39363 15.6537 0 10.3161 0C4.97156 0 0.59875 4.38669 0.59875 9.73123C0.59875 12.1189 1.49413 14.465 3.09056 16.2419C4.14558 17.4218 5.48519 18.3103 6.96362 18.8655L7.03303 18.8864H0.397461V19.9275H20.2347V18.8864H13.5992L13.6617 18.8655ZM1.63295 9.72429C1.63295 4.96279 5.53378 1.06197 10.2953 1.06197C15.0568 1.06197 18.9576 4.96279 18.9576 9.72429C18.9576 14.4858 15.0568 18.3866 10.2953 18.3866C5.53378 18.3866 1.63295 14.4858 1.63295 9.72429Z" fill="#B30838"/>
<path d="M16.9381 6.18408H15.8969V12.0423L12.3709 6.18408H3.60449V13.0626H4.73587V7.71804L7.90095 13.0626H16.9381V6.18408Z" fill="#B30838"/>
</svg>
