<svg width="130" height="20" viewBox="0 0 130 20" fill="none" xmlns="http://www.w3.org/2000/svg">
<path d="M0 13.2914V0H1.81922V13.1429C1.81922 16.7443 3.74982 18.2293 7.16549 18.2293C10.3955 18.2293 12.4747 16.7443 12.4747 13.1429V0H14.2939V13.2914C14.2939 17.8209 11.2866 19.7887 7.05412 19.7887C2.82165 19.7887 0 17.7838 0 13.2914Z" fill="#434142"/>
<path d="M18.3036 5.38295H20.0114V7.53632H20.0486C21.0139 6.12549 22.5361 5.08594 24.7637 5.08594C27.3626 5.08594 29.256 6.64526 29.256 9.46691V19.4541H27.5482V9.61543C27.5482 7.49919 26.323 6.49676 24.3182 6.49676C21.9049 6.49676 19.9743 8.2046 19.9743 10.5065V19.4541H18.2665V5.38295H18.3036Z" fill="#434142"/>
<path d="M32.1519 15.1102H33.8597C34.1196 17.4863 35.7532 18.4516 38.0179 18.4516C40.3569 18.4516 41.5821 17.3749 41.5821 15.7413C41.5821 14.182 40.7282 13.6622 37.8323 13.0311C34.9735 12.3628 32.6716 11.6945 32.6716 8.98423C32.6716 6.64523 34.6765 5.16016 37.5724 5.16016C40.9138 5.16016 42.4731 6.86799 42.8073 9.31837H41.1366C40.9509 7.49915 39.6886 6.53385 37.6095 6.53385C35.419 6.53385 34.3795 7.57341 34.3795 8.87285C34.3795 10.4693 35.716 10.8777 38.4263 11.4717C41.248 12.0658 43.2899 12.7712 43.2899 15.7042C43.2899 18.2288 41.2851 19.8995 38.0179 19.8995C34.231 19.8624 32.3375 17.8204 32.1519 15.1102Z" fill="#434142"/>
<path d="M45.8518 12.4371C45.8518 8.20462 48.3764 5.04883 52.2748 5.04883C56.8042 5.04883 58.3636 8.79865 58.3265 12.7341H47.5968C47.671 15.8899 49.1932 18.3774 52.4233 18.3774C54.7623 18.3774 55.9875 17.1151 56.5444 15.2216H58.178C57.5839 18.0061 55.5791 19.8254 52.4233 19.8254C48.1908 19.8254 45.8518 16.6696 45.8518 12.4371ZM56.5444 11.4347C56.4701 8.65015 55.1707 6.45966 52.2748 6.45966C49.416 6.45966 47.9309 8.61302 47.5968 11.4347H56.5444Z" fill="#434142"/>
<path d="M61.6679 5.38286H63.3757V7.98175H63.4128C64.2667 6.34816 65.7518 5.27148 67.7196 5.27148C67.9423 5.27148 68.0908 5.30861 68.1651 5.30861V6.97933C67.1627 6.83082 66.0488 7.01645 65.1578 7.64761C64.0811 8.4644 63.3386 9.76384 63.3386 11.4346V19.454H61.6307V5.38286H61.6679Z" fill="#434142"/>
<path d="M71.3209 0H73.1401V8.42782H84.1668V0H85.9861V19.4916H84.1668V9.95002H73.1401V19.4916H71.3209V0Z" fill="#434142"/>
<path d="M89.2532 15.8899C89.2532 12.5484 91.8521 11.843 95.045 11.4718C97.8295 11.1376 98.8319 10.9891 98.8319 9.57828V9.31839C98.8319 7.42491 97.6439 6.49674 95.4534 6.49674C92.9287 6.49674 91.6293 7.5363 91.5179 9.61541H89.8472C90.0328 6.90514 91.8521 5.12305 95.4534 5.12305C98.5349 5.12305 100.428 6.42248 100.428 9.46689V17.115C100.428 17.969 100.763 18.3031 101.357 18.3402C101.542 18.3402 101.728 18.3031 101.988 18.2289H102.062V19.454C101.802 19.5654 101.468 19.6768 100.911 19.6768C99.6858 19.6768 98.9062 19.0456 98.8319 17.6719V17.3749H98.7577C97.978 18.4887 96.5301 19.7882 93.8198 19.7882C91.258 19.8253 89.2532 18.4887 89.2532 15.8899ZM98.869 14.4048V11.8801C97.978 12.3628 96.5672 12.6227 95.2306 12.8083C92.8545 13.1425 91.0353 13.4766 91.0353 15.927C91.0353 17.8947 92.5203 18.4887 94.1539 18.4887C97.2355 18.4516 98.869 16.3354 98.869 14.4048Z" fill="#434142"/>
<path d="M104.549 15.3338V5.38379H106.22V15.2224C106.22 17.3387 107.519 18.3782 109.561 18.3782C111.975 18.3782 113.645 16.5961 113.645 14.1829V5.38379H115.316V19.4549H113.645V17.3758H113.608C112.643 18.7495 111.418 19.789 109.19 19.789C106.443 19.8262 104.549 18.1926 104.549 15.3338Z" fill="#434142"/>
<path d="M118.323 15.1102H120.031C120.291 17.4863 121.925 18.4516 124.19 18.4516C126.529 18.4516 127.754 17.3749 127.754 15.7413C127.754 14.182 126.9 13.6622 124.004 13.0311C121.145 12.3628 118.843 11.6945 118.843 8.98423C118.843 6.64523 120.848 5.16016 123.744 5.16016C127.085 5.16016 128.645 6.86799 128.979 9.31837H127.308C127.123 7.49915 125.86 6.53385 123.781 6.53385C121.591 6.53385 120.551 7.57341 120.551 8.87285C120.551 10.4693 121.888 10.8777 124.598 11.4717C127.42 12.0658 129.462 12.7712 129.462 15.7042C129.462 18.2288 127.457 19.8995 124.19 19.8995C120.403 19.8624 118.509 17.8204 118.323 15.1102Z" fill="#434142"/>
</svg>
